solid Onshape
  facet normal 0 0 -1
    outer loop
      vertex -2.28863 100.901 0
      vertex 0 100.901 0
      vertex -2.28863 -0.657668 0
    endloop
  endfacet
  facet normal 0 0 -1
    outer loop
      vertex 0 100.901 0
      vertex 0 -0.657668 0
      vertex -2.28863 -0.657668 0
    endloop
  endfacet
  facet normal 0 0 1
    outer loop
      vertex 0 100.901 20
      vertex -2.28863 100.901 20
      vertex 0 -0.657668 20
    endloop
  endfacet
  facet normal 0 0 1
    outer loop
      vertex -2.28863 100.901 20
      vertex -2.28863 -0.657668 20
      vertex 0 -0.657668 20
    endloop
  endfacet
  facet normal -1 0 0
    outer loop
      vertex -2.28863 -0.657668 20
      vertex -2.28863 100.901 20
      vertex -2.28863 -0.657668 0
    endloop
  endfacet
  facet normal -1 0 0
    outer loop
      vertex -2.28863 100.901 20
      vertex -2.28863 100.901 0
      vertex -2.28863 -0.657668 0
    endloop
  endfacet
  facet normal 0 1 0
    outer loop
      vertex -2.28863 100.901 20
      vertex 0 100.901 20
      vertex -2.28863 100.901 0
    endloop
  endfacet
  facet normal 0 1 0
    outer loop
      vertex 0 100.901 20
      vertex 0 100.901 0
      vertex -2.28863 100.901 0
    endloop
  endfacet
  facet normal 0 -1 0
    outer loop
      vertex 0 -0.657668 20
      vertex -2.28863 -0.657668 20
      vertex 0 -0.657668 0
    endloop
  endfacet
  facet normal 0 -1 0
    outer loop
      vertex -2.28863 -0.657668 20
      vertex -2.28863 -0.657668 0
      vertex 0 -0.657668 0
    endloop
  endfacet
  facet normal 1 0 0
    outer loop
      vertex 0 -0.657668 20
      vertex 0 -0.657668 0
      vertex 0 100.901 20
    endloop
  endfacet
  facet normal 1 0 0
    outer loop
      vertex 0 -0.657668 0
      vertex 0 100.901 0
      vertex 0 100.901 20
    endloop
  endfacet
endsolid Onshape
