solid Onshape
  facet normal -1 0 0
    outer loop
      vertex 200 0 20
      vertex 200 100 20
      vertex 200 0 0
    endloop
  endfacet
  facet normal -1 0 0
    outer loop
      vertex 200 100 20
      vertex 200 100 0
      vertex 200 0 0
    endloop
  endfacet
  facet normal 0 1 0
    outer loop
      vertex 5.68434e-14 0 20
      vertex 200 0 20
      vertex 5.68434e-14 0 0
    endloop
  endfacet
  facet normal 0 1 0
    outer loop
      vertex 200 0 20
      vertex 200 0 0
      vertex 5.68434e-14 0 0
    endloop
  endfacet
  facet normal 0 0 -1
    outer loop
      vertex 5.68434e-14 100 0
      vertex 0 100.901 0
      vertex 200 100 0
    endloop
  endfacet
  facet normal 0 0 -1
    outer loop
      vertex 0 100.901 0
      vertex 200.949 100.901 0
      vertex 200 100 0
    endloop
  endfacet
  facet normal 0 0 -1
    outer loop
      vertex 200 100 0
      vertex 200.949 100.901 0
      vertex 200 0 0
    endloop
  endfacet
  facet normal 0 0 -1
    outer loop
      vertex 200.949 100.901 0
      vertex 200.949 -0.657668 0
      vertex 200 0 0
    endloop
  endfacet
  facet normal 0 0 -1
    outer loop
      vertex 200 0 0
      vertex 200.949 -0.657668 0
      vertex 5.68434e-14 0 0
    endloop
  endfacet
  facet normal 0 0 -1
    outer loop
      vertex 200.949 -0.657668 0
      vertex 0 -0.657668 0
      vertex 5.68434e-14 0 0
    endloop
  endfacet
  facet normal 0 -1 0
    outer loop
      vertex 200 100 20
      vertex 5.68434e-14 100 20
      vertex 200 100 0
    endloop
  endfacet
  facet normal 0 -1 0
    outer loop
      vertex 5.68434e-14 100 20
      vertex 5.68434e-14 100 0
      vertex 200 100 0
    endloop
  endfacet
  facet normal 0 -1 0
    outer loop
      vertex 200.949 -0.657668 20
      vertex 0 -0.657668 20
      vertex 200.949 -0.657668 0
    endloop
  endfacet
  facet normal 0 -1 0
    outer loop
      vertex 0 -0.657668 20
      vertex 0 -0.657668 0
      vertex 200.949 -0.657668 0
    endloop
  endfacet
  facet normal -1 8.64318e-14 0
    outer loop
      vertex 5.68434e-14 0 0
      vertex 0 -0.657668 0
      vertex 5.68434e-14 0 20
    endloop
  endfacet
  facet normal -1 8.64318e-14 0
    outer loop
      vertex 0 -0.657668 0
      vertex 0 -0.657668 20
      vertex 5.68434e-14 0 20
    endloop
  endfacet
  facet normal 0 0 1
    outer loop
      vertex 5.68434e-14 0 20
      vertex 0 -0.657668 20
      vertex 200 0 20
    endloop
  endfacet
  facet normal 0 0 1
    outer loop
      vertex 0 -0.657668 20
      vertex 200.949 -0.657668 20
      vertex 200 0 20
    endloop
  endfacet
  facet normal 0 0 1
    outer loop
      vertex 200 0 20
      vertex 200.949 -0.657668 20
      vertex 200 100 20
    endloop
  endfacet
  facet normal 0 0 1
    outer loop
      vertex 200.949 -0.657668 20
      vertex 200.949 100.901 20
      vertex 200 100 20
    endloop
  endfacet
  facet normal 0 0 1
    outer loop
      vertex 200 100 20
      vertex 200.949 100.901 20
      vertex 5.68434e-14 100 20
    endloop
  endfacet
  facet normal 0 0 1
    outer loop
      vertex 200.949 100.901 20
      vertex 0 100.901 20
      vertex 5.68434e-14 100 20
    endloop
  endfacet
  facet normal 0 1 0
    outer loop
      vertex 0 100.901 20
      vertex 200.949 100.901 20
      vertex 0 100.901 0
    endloop
  endfacet
  facet normal 0 1 0
    outer loop
      vertex 200.949 100.901 20
      vertex 200.949 100.901 0
      vertex 0 100.901 0
    endloop
  endfacet
  facet normal -1 -6.30689e-14 0
    outer loop
      vertex 0 100.901 20
      vertex 0 100.901 0
      vertex 5.68434e-14 100 20
    endloop
  endfacet
  facet normal -1 -6.30689e-14 0
    outer loop
      vertex 0 100.901 0
      vertex 5.68434e-14 100 0
      vertex 5.68434e-14 100 20
    endloop
  endfacet
  facet normal 1 0 0
    outer loop
      vertex 200.949 100.901 20
      vertex 200.949 -0.657668 20
      vertex 200.949 100.901 0
    endloop
  endfacet
  facet normal 1 0 0
    outer loop
      vertex 200.949 -0.657668 20
      vertex 200.949 -0.657668 0
      vertex 200.949 100.901 0
    endloop
  endfacet
endsolid Onshape
